<?xml version="1.0" standalone="no"?>
<!DOCTYPE svg PUBLIC "-//W3C//DTD SVG 20010904//EN"
 "http://www.w3.org/TR/2001/REC-SVG-20010904/DTD/svg10.dtd">
<svg version="1.0" xmlns="http://www.w3.org/2000/svg"
 width="237.000000pt" height="119.000000pt" viewBox="0 0 237.000000 119.000000"
 preserveAspectRatio="xMidYMid meet">

<g transform="translate(0.000000,119.000000) scale(0.100000,-0.100000)"
fill="#000000" stroke="none">
<path d="M496 1153 c-4 -5 -12 -8 -18 -8 -6 0 -13 -11 -14 -25 -3 -21 -2 -23
7 -7 6 9 16 14 22 11 7 -4 9 -4 5 1 -4 4 -3 14 3 22 12 14 8 18 -5 6z"/>
<path d="M560 1135 c-7 -8 -16 -13 -20 -10 -5 3 -12 1 -15 -5 -4 -6 -2 -9 4
-8 5 2 17 -6 26 -17 16 -20 16 -20 6 1 -8 16 -7 25 3 33 7 6 17 7 21 3 5 -4 5
-1 1 6 -9 15 -11 15 -26 -3z"/>
<path d="M758 1138 c8 -8 8 -17 1 -31 -13 -22 3 -47 16 -26 5 8 4 10 -3 5 -15
-9 -15 -1 -1 25 5 11 15 17 22 13 9 -5 9 -3 0 6 -7 8 -20 15 -29 16 -12 2 -14
0 -6 -8z"/>
<path d="M726 1108 c3 -5 10 -6 15 -3 13 9 11 12 -6 12 -8 0 -12 -4 -9 -9z"/>
<path d="M331 1088 c-11 -17 -10 -23 1 -35 13 -12 15 -12 15 1 0 8 -4 13 -9
10 -12 -8 -10 10 4 24 6 6 10 14 7 16 -3 3 -11 -4 -18 -16z"/>
<path d="M506 1083 c-6 -14 -5 -15 5 -6 7 7 10 15 7 18 -3 3 -9 -2 -12 -12z"/>
<path d="M433 1071 c1 -3 -5 -16 -13 -28 -12 -18 -17 -20 -30 -10 -13 11 -13
10 -1 -6 13 -17 16 -17 26 -3 7 9 15 14 18 11 4 -3 5 -2 2 2 -3 3 2 14 10 23
13 14 13 17 1 17 -8 0 -14 -3 -13 -6z"/>
<path d="M605 1060 c-4 -6 -11 -7 -17 -4 -6 4 -8 2 -4 -4 3 -6 2 -13 -4 -17
-5 -3 -10 -1 -10 6 0 7 -3 10 -6 6 -3 -3 -1 -14 5 -24 6 -11 11 -13 11 -5 0 7
5 10 10 7 6 -4 9 -1 8 7 -2 7 2 12 8 11 6 -1 11 5 11 13 0 17 -4 18 -12 4z"/>
<path d="M659 1043 c-12 -16 -12 -17 2 -6 9 7 20 9 24 5 5 -4 5 -1 1 6 -9 16
-11 15 -27 -5z"/>
<path d="M794 1042 c23 -26 23 -26 23 -7 0 8 -3 13 -5 10 -3 -3 -12 1 -21 7
-10 8 -9 4 3 -10z"/>
<path d="M873 1045 c0 -8 3 -13 5 -10 3 3 11 0 18 -6 9 -7 14 -6 20 3 4 7 3
10 -1 5 -5 -4 -16 0 -25 8 -15 13 -17 13 -17 0z"/>
<path d="M934 1039 c-3 -6 -2 -15 3 -20 5 -5 9 -1 9 11 0 23 -2 24 -12 9z"/>
<path d="M499 1038 c-8 -16 -3 -45 8 -45 9 0 10 4 3 11 -17 17 -11 29 8 15 15
-13 16 -12 3 4 -13 16 -19 20 -22 15z"/>
<path d="M724 1032 c4 -3 14 -7 22 -8 9 -1 13 0 10 4 -4 3 -14 7 -22 8 -9 1
-13 0 -10 -4z"/>
<path d="M334 1003 c2 -10 6 -17 10 -16 15 3 16 11 2 22 -12 10 -14 9 -12 -6z"/>
<path d="M275 1000 c-4 -6 -12 -7 -18 -4 -7 4 -8 3 -4 -1 13 -15 34 -14 34 1
0 17 -4 18 -12 4z"/>
<path d="M396 988 c3 -5 10 -6 15 -3 13 9 11 12 -6 12 -8 0 -12 -4 -9 -9z"/>
<path d="M176 982 c-3 -5 1 -9 9 -9 8 0 12 4 9 9 -3 4 -7 8 -9 8 -2 0 -6 -4
-9 -8z"/>
<path d="M305 980 c-3 -5 -3 -10 2 -10 4 0 1 -5 -7 -10 -11 -7 -11 -10 -2 -10
7 0 11 -4 8 -9 -7 -11 20 -8 31 3 4 4 4 7 -2 6 -21 -5 -27 1 -16 14 8 9 8 16
2 20 -5 4 -12 2 -16 -4z"/>
<path d="M530 981 c0 -7 -5 -9 -12 -5 -7 5 -8 3 -3 -5 5 -9 10 -10 18 -2 6 6
8 14 4 18 -4 3 -7 1 -7 -6z"/>
<path d="M225 960 c10 -11 20 -20 23 -20 3 0 -3 9 -13 20 -10 11 -20 20 -23
20 -3 0 3 -9 13 -20z"/>
<path d="M437 966 c-4 -10 -3 -15 3 -11 6 3 10 1 10 -6 0 -7 3 -10 6 -6 3 3 2
13 -4 22 -8 16 -9 16 -15 1z"/>
<path d="M484 969 c-3 -6 -2 -15 4 -21 6 -6 12 -6 17 3 6 8 4 10 -5 4 -10 -6
-12 -4 -7 8 7 19 2 23 -9 6z"/>
<path d="M1003 966 c0 -15 22 -15 34 0 4 5 4 6 -1 2 -5 -4 -14 -3 -21 2 -8 7
-12 5 -12 -4z"/>
<path d="M1440 953 c-31 -11 -60 -47 -66 -82 -6 -30 -8 -113 -5 -246 1 -34 2
-35 41 -35 l40 0 0 50 0 50 63 0 64 0 -1 -50 -2 -50 43 0 43 0 0 123 c0 144
-10 187 -51 221 -26 22 -40 26 -92 25 -34 0 -69 -3 -77 -6z m114 -79 c9 -8 16
-18 17 -22 1 -4 3 -26 5 -49 l3 -43 -64 0 -65 0 0 47 c0 29 6 53 17 65 20 22
66 24 87 2z"/>
<path d="M1724 803 c34 -87 69 -171 77 -188 15 -31 35 -41 56 -27 10 6 153
352 153 369 0 2 -20 3 -44 3 l-43 0 -21 -57 c-12 -32 -29 -84 -39 -115 -10
-32 -20 -58 -23 -58 -3 0 -24 51 -46 113 l-41 112 -46 3 -45 3 62 -158z"/>
<path d="M2050 775 l0 -185 93 0 c109 0 151 18 165 72 9 35 -1 87 -19 98 -7 5
-4 18 9 40 13 21 18 43 15 63 -12 77 -47 97 -173 97 l-90 0 0 -185z m168 103
c18 -18 14 -56 -7 -68 -11 -5 -33 -10 -50 -10 -30 0 -31 1 -31 45 l0 45 38 0
c21 0 43 -5 50 -12z m-7 -138 c19 -11 24 -35 13 -64 -4 -11 -19 -16 -50 -16
l-44 0 0 45 c0 44 1 45 31 45 17 0 39 -5 50 -10z"/>
<path d="M154 928 c-19 -23 -19 -23 2 -5 11 9 24 14 29 10 4 -5 5 -2 1 5 -9
16 -10 16 -32 -10z"/>
<path d="M200 936 c0 -2 8 -10 18 -17 15 -13 16 -12 3 4 -13 16 -21 21 -21 13z"/>
<path d="M993 928 c-13 -22 -12 -36 7 -53 12 -11 20 -13 25 -5 3 6 1 9 -7 8
-9 -2 -13 8 -12 30 1 35 -1 38 -13 20z"/>
<path d="M1023 925 c0 -6 6 -12 12 -12 6 0 12 6 12 12 0 6 -6 12 -12 12 -6 0
-12 -6 -12 -12z"/>
<path d="M429 928 c0 -2 -2 -13 -5 -25 l-4 -23 25 22 c14 12 25 24 25 27 0 3
-5 0 -12 -7 -15 -15 -32 -16 -23 -2 3 6 4 10 1 10 -3 0 -6 -1 -7 -2z"/>
<path d="M1072 899 c2 -7 -2 -13 -9 -14 -6 0 -14 -3 -18 -7 -4 -3 0 -5 9 -4
24 3 40 22 27 31 -7 3 -10 1 -9 -6z"/>
<path d="M116 892 c-3 -5 1 -9 9 -9 8 0 12 4 9 9 -3 4 -7 8 -9 8 -2 0 -6 -4
-9 -8z"/>
<path d="M225 890 c-4 -6 -11 -7 -17 -4 -7 4 -8 2 -4 -5 6 -8 12 -9 20 -2 7 6
17 7 21 3 5 -4 5 -1 1 6 -9 15 -13 15 -21 2z"/>
<path d="M341 887 c-1 -11 -6 -15 -13 -11 -7 5 -8 3 -3 -5 10 -16 29 2 22 21
-4 8 -6 7 -6 -5z"/>
<path d="M289 863 c-13 -16 -12 -17 4 -4 16 13 21 21 13 21 -2 0 -10 -8 -17
-17z"/>
<path d="M951 857 c-8 -10 -7 -14 2 -14 8 0 14 6 14 14 0 7 -1 13 -2 13 -2 0
-8 -6 -14 -13z"/>
<path d="M110 857 c0 -2 6 -10 14 -16 11 -9 16 -9 22 1 4 7 4 10 -1 6 -4 -4
-14 -3 -22 3 -7 6 -13 9 -13 6z"/>
<path d="M73 835 c0 -8 4 -12 9 -9 5 3 6 10 3 15 -9 13 -12 11 -12 -6z"/>
<path d="M901 814 c0 -11 3 -14 6 -6 3 7 2 16 -1 19 -3 4 -6 -2 -5 -13z"/>
<path d="M285 810 c-4 -6 -11 -7 -17 -4 -7 4 -8 2 -4 -5 6 -8 12 -9 20 -2 7 6
17 7 21 3 5 -4 5 -1 1 6 -9 15 -13 15 -21 2z"/>
<path d="M136 798 c3 -5 10 -6 15 -3 13 9 11 12 -6 12 -8 0 -12 -4 -9 -9z"/>
<path d="M923 803 c4 -3 1 -13 -6 -22 -11 -14 -10 -14 5 -2 16 12 16 31 1 31
-4 0 -3 -3 0 -7z"/>
<path d="M1026 794 c1 -6 -2 -16 -8 -22 -6 -6 -6 -12 1 -16 11 -7 12 -6 15 17
1 6 7 11 12 10 6 -1 11 5 11 12 0 11 -4 12 -13 4 -6 -5 -14 -6 -16 -2 -3 4 -4
3 -2 -3z"/>
<path d="M125 760 c-4 -6 -11 -7 -17 -4 -7 4 -8 2 -4 -5 6 -9 11 -9 22 0 14
11 18 19 10 19 -3 0 -8 -5 -11 -10z"/>
<path d="M264 758 c-4 -7 -3 -10 1 -5 5 4 16 0 26 -9 14 -12 18 -13 25 -2 4 7
3 10 -1 5 -5 -4 -16 0 -26 9 -14 12 -18 13 -25 2z"/>
<path d="M333 749 c-2 -23 3 -25 10 -4 4 8 3 16 -1 19 -4 3 -9 -4 -9 -15z"/>
<path d="M944 759 c1 -7 10 -13 19 -15 9 -1 15 2 11 7 -3 5 -9 7 -14 4 -4 -3
-11 0 -13 5 -3 6 -4 5 -3 -1z"/>
<path d="M1090 761 c0 -7 -5 -9 -12 -5 -7 5 -8 3 -3 -5 5 -9 10 -10 18 -2 6 6
8 14 4 18 -4 3 -7 1 -7 -6z"/>
<path d="M144 739 c-2 -4 4 -6 13 -4 10 1 23 -1 29 -6 6 -5 11 -4 11 4 0 14
-45 18 -53 6z"/>
<path d="M949 714 c-7 -8 -7 -14 1 -19 6 -4 9 -1 8 6 -2 7 2 13 9 14 17 0 25
12 8 12 -8 0 -20 -6 -26 -13z"/>
<path d="M1034 719 c-8 -14 14 -19 25 -6 8 10 7 14 -5 14 -8 0 -17 -4 -20 -8z"/>
<path d="M1135 719 c-3 -4 2 -6 10 -5 21 3 28 13 10 13 -9 0 -18 -4 -20 -8z"/>
<path d="M917 696 c-3 -8 -2 -18 3 -21 13 -8 20 9 11 24 -6 10 -10 9 -14 -3z"/>
<path d="M1005 700 c-3 -5 -4 -10 0 -10 3 0 1 -10 -5 -22 -10 -21 -10 -21 3
-6 9 12 17 14 24 7 6 -6 10 -5 10 5 0 8 -5 14 -11 13 -6 -1 -10 4 -8 11 3 15
-4 16 -13 2z"/>
<path d="M60 691 c0 -6 4 -13 10 -16 6 -3 7 1 4 9 -7 18 -14 21 -14 7z"/>
<path d="M193 687 c0 -8 6 -14 14 -14 9 0 10 4 2 14 -6 7 -12 13 -14 13 -1 0
-2 -6 -2 -13z"/>
<path d="M253 676 c-1 -12 1 -15 4 -8 7 19 23 4 16 -16 -7 -18 -5 -17 17 11
11 16 11 18 -1 15 -8 -2 -13 2 -12 8 1 6 -4 11 -11 11 -6 0 -12 -10 -13 -21z"/>
<path d="M1070 661 c0 -6 4 -13 10 -16 6 -3 7 1 4 9 -7 18 -14 21 -14 7z"/>
<path d="M1176 655 c4 -10 2 -15 -6 -13 -7 2 -14 -3 -15 -10 -2 -7 -1 -8 2 -2
3 7 9 8 17 1 8 -7 12 -4 13 9 1 11 -2 22 -8 25 -5 3 -6 -1 -3 -10z"/>
<path d="M56 623 c-6 -14 -5 -15 5 -6 7 7 10 15 7 18 -3 3 -9 -2 -12 -12z"/>
<path d="M207 629 c7 -9 9 -20 5 -25 -4 -4 1 -2 11 5 9 7 17 16 17 19 0 3 -3
2 -7 -1 -3 -4 -13 -1 -22 6 -14 10 -14 10 -4 -4z"/>
<path d="M910 632 c0 -6 5 -14 10 -17 6 -4 7 -11 4 -17 -4 -7 -2 -8 5 -4 9 6
9 12 -1 24 -7 10 -14 19 -15 21 -2 2 -3 -1 -3 -7z"/>
<path d="M992 627 c-7 -8 -7 -18 -2 -27 5 -8 7 -17 5 -20 -2 -4 2 -7 9 -7 7 0
13 6 13 13 0 7 -4 11 -8 9 -12 -8 -18 22 -6 34 6 6 8 11 5 11 -3 0 -10 -6 -16
-13z"/>
<path d="M1135 613 c3 -3 0 -12 -7 -20 -9 -11 -7 -18 9 -34 15 -16 20 -17 20
-5 0 8 -5 14 -10 13 -5 -1 -12 4 -15 12 -2 8 0 11 6 7 11 -7 10 20 -1 29 -4 3
-5 2 -2 -2z"/>
<path d="M1033 584 c0 -8 3 -12 5 -9 3 3 11 0 18 -6 9 -7 12 -6 10 7 -3 21
-33 28 -33 8z"/>
<path d="M270 586 c0 -2 8 -10 18 -17 15 -13 16 -12 3 4 -13 16 -21 21 -21 13z"/>
<path d="M57 548 c19 -21 31 -25 14 -5 -6 8 -9 16 -6 19 3 2 -2 5 -10 5 -13 0
-13 -3 2 -19z"/>
<path d="M280 535 c-10 -13 -11 -18 -1 -28 10 -9 11 -8 5 7 -5 12 -4 17 3 13
5 -3 10 0 10 8 0 19 -2 19 -17 0z"/>
<path d="M935 540 c-4 -6 -1 -9 7 -8 7 2 12 -3 10 -11 -2 -11 0 -12 11 -3 8 7
16 11 18 9 2 -1 3 0 1 3 -2 3 -7 5 -10 5 -4 0 -12 4 -19 8 -6 4 -15 3 -18 -3z"/>
<path d="M1031 533 c-1 -17 16 -25 25 -12 4 7 3 9 -4 5 -5 -3 -13 0 -15 6 -4
9 -6 10 -6 1z"/>
<path d="M126 522 c-3 -5 1 -9 9 -9 8 0 12 4 9 9 -3 4 -7 8 -9 8 -2 0 -6 -4
-9 -8z"/>
<path d="M1150 516 c-9 -11 -9 -19 0 -33 11 -17 11 -17 6 1 -4 10 -1 25 5 32
6 8 9 14 6 14 -2 0 -10 -7 -17 -14z"/>
<path d="M1073 504 c0 -10 4 -11 10 -5 7 7 15 7 23 0 8 -7 14 -7 19 1 4 6 3
10 -2 9 -4 -1 -10 0 -13 1 -22 8 -37 5 -37 -6z"/>
<path d="M246 502 c-3 -5 1 -9 9 -9 8 0 12 4 9 9 -3 4 -7 8 -9 8 -2 0 -6 -4
-9 -8z"/>
<path d="M1016 502 c-3 -5 1 -9 9 -9 8 0 12 4 9 9 -3 4 -7 8 -9 8 -2 0 -6 -4
-9 -8z"/>
<path d="M115 489 c-4 -6 -5 -12 -2 -15 2 -3 7 2 10 11 7 17 1 20 -8 4z"/>
<path d="M896 485 c-9 -26 -7 -32 5 -12 6 10 9 21 6 23 -2 3 -7 -2 -11 -11z"/>
<path d="M135 479 c-4 -6 -5 -12 -2 -15 2 -3 7 2 10 11 7 17 1 20 -8 4z"/>
<path d="M165 482 c3 -3 -1 -12 -8 -21 -10 -14 -10 -14 5 -3 13 10 17 10 21 0
3 -7 5 -4 4 8 -1 11 -7 21 -14 21 -7 0 -11 -3 -8 -5z"/>
<path d="M936 463 c-6 -14 -5 -15 5 -6 7 7 10 15 7 18 -3 3 -9 -2 -12 -12z"/>
<path d="M1106 463 c-6 -14 -5 -15 5 -6 7 7 10 15 7 18 -3 3 -9 -2 -12 -12z"/>
<path d="M1304 469 c-12 -20 -15 -79 -4 -79 5 0 10 7 10 15 0 21 27 19 33 -2
3 -10 5 2 4 27 -2 33 -6 46 -19 48 -9 2 -20 -2 -24 -9z m36 -24 c0 -8 -7 -15
-15 -15 -8 0 -15 7 -15 15 0 8 7 15 15 15 8 0 15 -7 15 -15z"/>
<path d="M1446 464 c-21 -20 -20 -41 3 -70 18 -23 19 -23 36 -4 18 20 18 20
-6 18 -20 -3 -25 2 -27 25 -3 24 0 27 25 27 22 0 25 2 13 10 -20 13 -26 12
-44 -6z"/>
<path d="M1581 466 c-7 -8 -11 -27 -9 -43 2 -22 8 -28 28 -28 20 0 26 6 28 28
3 27 -12 57 -28 57 -4 0 -13 -6 -19 -14z m33 -21 c6 -17 -2 -45 -14 -45 -4 0
-10 7 -14 15 -6 17 2 45 14 45 4 0 10 -7 14 -15z"/>
<path d="M1790 471 c0 -5 7 -26 16 -47 l17 -39 19 44 c21 50 17 67 -5 24 l-15
-28 -11 28 c-10 26 -21 36 -21 18z"/>
<path d="M1920 435 c0 -43 1 -45 28 -44 16 1 20 3 10 6 -10 2 -18 11 -18 18 0
7 8 16 18 18 16 4 16 5 0 6 -22 1 -24 21 -3 21 8 0 15 5 15 10 0 6 -11 10 -25
10 -23 0 -25 -4 -25 -45z"/>
<path d="M2051 433 c1 -27 3 -40 6 -30 6 21 19 22 27 2 3 -8 11 -15 17 -15 8
0 8 4 0 14 -9 11 -9 20 -2 34 12 22 -3 42 -31 42 -15 0 -18 -8 -17 -47z m37
15 c-6 -18 -28 -21 -28 -4 0 9 7 16 16 16 9 0 14 -5 12 -12z"/>
<path d="M2189 478 c0 -2 -2 -22 -3 -45 -3 -36 -1 -43 15 -43 17 0 49 25 49
38 0 16 -32 52 -46 52 -8 0 -14 -1 -15 -2z m36 -28 c8 -13 -4 -50 -16 -50 -5
0 -9 14 -9 30 0 30 13 40 25 20z"/>
<path d="M2320 435 c0 -43 1 -45 28 -44 16 1 20 3 10 6 -10 2 -18 11 -18 18 0
7 8 16 18 18 16 4 16 5 0 6 -22 1 -24 21 -3 21 8 0 15 5 15 10 0 6 -11 10 -25
10 -23 0 -25 -4 -25 -45z"/>
<path d="M246 462 c-3 -5 1 -9 9 -9 8 0 12 4 9 9 -3 4 -7 8 -9 8 -2 0 -6 -4
-9 -8z"/>
<path d="M907 447 c-3 -8 1 -14 8 -14 7 0 11 6 8 14 -3 7 -6 13 -8 13 -2 0 -5
-6 -8 -13z"/>
<path d="M195 440 c-4 -6 -10 -8 -14 -6 -4 3 -8 -1 -8 -9 0 -8 3 -14 6 -13 3
0 8 -1 11 -2 21 -8 37 -6 37 6 0 9 -4 11 -12 4 -16 -14 -27 0 -14 17 6 7 9 13
6 13 -3 0 -9 -5 -12 -10z"/>
<path d="M1008 410 c-12 -16 -25 -27 -30 -24 -14 9 -9 -3 8 -16 8 -8 14 -9 12
-4 -4 14 22 55 32 49 5 -3 12 -1 15 5 5 8 12 7 23 -2 14 -10 15 -10 5 2 -21
23 -43 20 -65 -10z"/>
<path d="M1116 422 c-3 -5 1 -9 9 -9 8 0 12 4 9 9 -3 4 -7 8 -9 8 -2 0 -6 -4
-9 -8z"/>
<path d="M884 412 c4 -3 14 -7 22 -8 9 -1 13 0 10 4 -4 3 -14 7 -22 8 -9 1
-13 0 -10 -4z"/>
<path d="M930 406 c0 -2 8 -10 18 -17 15 -13 16 -12 3 4 -13 16 -21 21 -21 13z"/>
<path d="M150 397 c0 -2 6 -10 14 -16 11 -9 16 -9 22 1 4 7 4 10 -1 6 -4 -4
-14 -3 -22 3 -7 6 -13 9 -13 6z"/>
<path d="M1045 389 c3 -3 -1 -12 -9 -18 -11 -9 -15 -9 -20 1 -3 7 -4 4 -3 -7
1 -11 -4 -20 -10 -20 -7 0 -13 -3 -13 -7 0 -5 0 -11 0 -15 0 -3 8 1 18 10 10
10 22 14 27 10 4 -5 5 -3 2 3 -7 12 16 38 25 29 2 -3 5 1 5 8 0 8 -6 14 -13
14 -7 0 -11 -4 -9 -8z"/>
<path d="M1086 388 c3 -5 10 -6 15 -3 13 9 11 12 -6 12 -8 0 -12 -4 -9 -9z"/>
<path d="M1123 393 c4 -3 1 -13 -6 -22 -11 -14 -10 -14 5 -2 16 12 16 31 1 31
-4 0 -3 -3 0 -7z"/>
<path d="M75 370 c-4 -6 -11 -7 -17 -4 -7 4 -8 2 -4 -5 6 -9 11 -9 22 0 14 11
18 19 10 19 -3 0 -8 -5 -11 -10z"/>
<path d="M915 351 c-3 -5 -2 -12 3 -15 5 -3 9 1 9 9 0 17 -3 19 -12 6z"/>
<path d="M856 322 c-3 -5 1 -9 9 -9 8 0 12 4 9 9 -3 4 -7 8 -9 8 -2 0 -6 -4
-9 -8z"/>
<path d="M948 319 c15 -16 16 -33 1 -23 -8 5 -8 1 0 -13 6 -11 7 -24 3 -28 -4
-5 -2 -5 5 -1 7 4 17 -2 23 -15 7 -11 14 -18 17 -15 3 3 12 -2 20 -12 13 -15
13 -15 3 6 -6 12 -15 20 -21 17 -8 -6 -13 8 -10 27 0 5 -4 7 -10 5 -6 -1 -14
4 -17 12 -3 9 0 11 8 6 9 -6 9 -3 1 13 -6 12 -17 24 -24 28 -9 5 -9 4 1 -7z"/>
<path d="M86 308 c3 -5 9 -7 12 -4 3 3 12 0 21 -6 13 -10 14 -10 4 2 -15 16
-46 23 -37 8z"/>
<path d="M1370 276 c0 -38 3 -46 18 -46 53 0 57 68 5 84 -22 7 -23 4 -23 -38z
m35 -6 c0 -13 -6 -25 -12 -27 -9 -3 -13 6 -13 27 0 21 4 30 13 28 6 -3 12 -15
12 -28z"/>
<path d="M1502 308 c-26 -26 -8 -83 24 -76 23 4 31 52 13 74 -14 17 -21 18
-37 2z m33 -38 c0 -13 -6 -25 -12 -27 -9 -3 -13 6 -13 27 0 21 4 30 13 28 6
-3 12 -15 12 -28z"/>
<path d="M1700 276 c0 -42 2 -46 24 -46 29 0 37 18 27 57 -5 18 -15 29 -29 31
-20 3 -22 -1 -22 -42z m35 14 c-3 -5 -10 -10 -16 -10 -5 0 -9 5 -9 10 0 6 7
10 16 10 8 0 12 -4 9 -10z m5 -35 c0 -8 -7 -15 -15 -15 -8 0 -15 7 -15 15 0 8
7 15 15 15 8 0 15 -7 15 -15z"/>
<path d="M1820 275 c0 -25 5 -45 11 -45 5 0 8 4 4 9 -3 5 -1 12 4 15 5 3 11
-1 15 -9 10 -26 21 -16 21 18 0 40 -11 57 -36 57 -16 0 -19 -7 -19 -45z m40
10 c0 -8 -4 -15 -9 -15 -13 0 -22 16 -14 24 11 11 23 6 23 -9z"/>
<path d="M1955 310 c-11 -17 -14 -80 -4 -80 5 0 9 7 9 15 0 8 7 15 15 15 8 0
15 -7 15 -15 0 -8 3 -15 8 -15 9 0 7 64 -3 79 -8 14 -32 14 -40 1z m35 -25 c0
-8 -7 -15 -15 -15 -8 0 -15 7 -15 15 0 8 7 15 15 15 8 0 15 -7 15 -15z"/>
<path d="M2069 304 c-11 -14 -10 -18 6 -30 10 -8 23 -14 28 -14 4 0 5 -5 1
-11 -3 -6 -15 -8 -27 -5 -14 3 -17 2 -10 -5 15 -15 47 -7 51 13 2 9 -5 19 -17
23 -28 9 -27 25 2 25 18 0 19 2 7 10 -20 13 -25 13 -41 -6z"/>
<path d="M2185 275 c0 -41 2 -45 25 -45 18 0 21 3 11 9 -10 6 -12 20 -8 45 5
30 3 36 -11 36 -14 0 -17 -9 -17 -45z"/>
<path d="M2292 278 c-2 -44 0 -48 21 -47 16 1 17 3 5 6 -12 3 -18 17 -21 46
l-4 42 -1 -47z"/>
<path d="M776 293 c-4 -9 -4 -14 0 -10 4 4 14 1 23 -6 14 -11 15 -10 1 8 -8
11 -15 21 -16 23 -1 2 -5 -5 -8 -15z"/>
<path d="M1050 289 c0 -5 -4 -8 -9 -4 -5 3 -12 1 -15 -4 -4 -5 2 -8 11 -7 15
3 33 26 19 26 -3 0 -6 -5 -6 -11z"/>
<path d="M910 275 c-7 -8 -17 -12 -24 -8 -6 4 -5 -1 3 -10 14 -18 26 -24 17
-8 -8 12 19 33 29 23 5 -4 5 -1 1 6 -9 15 -11 15 -26 -3z"/>
<path d="M769 256 c6 -7 7 -17 3 -22 -4 -4 1 -2 11 5 19 15 16 24 -9 27 -11 2
-12 -1 -5 -10z"/>
<path d="M224 228 c-4 -6 -3 -8 3 -5 6 4 16 0 23 -8 12 -14 7 -19 -13 -16 -5
1 -5 -3 -2 -9 4 -6 9 -9 13 -6 3 3 11 -2 19 -12 12 -15 13 -14 2 8 -7 14 -12
26 -11 28 1 1 2 6 2 11 0 14 -29 21 -36 9z"/>
<path d="M855 220 c-4 -6 -11 -7 -17 -4 -7 4 -8 2 -4 -5 6 -9 11 -9 22 0 14
11 18 19 10 19 -3 0 -8 -5 -11 -10z"/>
<path d="M880 225 c0 -2 6 -8 13 -14 10 -8 14 -7 14 2 0 8 -6 14 -14 14 -7 0
-13 -1 -13 -2z"/>
<path d="M741 204 c6 -7 16 -11 21 -8 11 7 3 17 -18 20 -12 2 -13 -1 -3 -12z"/>
<path d="M979 193 c-12 -16 -12 -17 2 -6 9 7 20 9 24 5 5 -4 5 -1 1 6 -9 16
-11 15 -27 -5z"/>
<path d="M206 185 c-9 -26 -7 -32 5 -12 6 10 9 21 6 23 -2 3 -7 -2 -11 -11z"/>
<path d="M373 185 c0 -7 6 -11 14 -8 7 3 13 6 13 8 0 2 -6 5 -13 8 -8 3 -14
-1 -14 -8z"/>
<path d="M643 194 c3 -4 2 -16 -4 -28 -9 -19 -9 -19 4 -4 8 10 18 14 23 10 4
-4 2 1 -5 11 -7 9 -16 17 -19 17 -3 0 -2 -3 1 -6z"/>
<path d="M868 193 c0 -5 -2 -12 -3 -18 -2 -5 -3 -16 -4 -23 0 -7 -6 -10 -13
-6 -7 5 -8 3 -3 -6 6 -10 10 -10 20 3 8 11 15 13 22 6 8 -8 13 -7 18 3 5 7 5
10 0 6 -4 -4 -14 -3 -22 3 -16 14 -18 33 -1 23 7 -4 8 -3 4 4 -8 14 -15 15
-18 5z"/>
<path d="M514 182 c4 -3 14 -7 22 -8 9 -1 13 0 10 4 -4 3 -14 7 -22 8 -9 1
-13 0 -10 -4z"/>
<path d="M805 179 c-4 -6 -5 -12 -2 -15 2 -3 7 2 10 11 7 17 1 20 -8 4z"/>
<path d="M494 163 c2 -9 11 -17 20 -19 17 -2 17 -2 0 17 -21 23 -23 23 -20 2z"/>
<path d="M566 172 c-3 -5 1 -9 9 -9 8 0 12 4 9 9 -3 4 -7 8 -9 8 -2 0 -6 -4
-9 -8z"/>
<path d="M713 157 c-1 -11 -1 -18 0 -16 2 2 8 11 15 20 9 12 9 16 -1 16 -7 0
-14 -9 -14 -20z"/>
<path d="M773 165 c0 -8 4 -12 9 -9 5 3 6 10 3 15 -9 13 -12 11 -12 -6z"/>
<path d="M463 147 c0 -8 6 -14 14 -14 9 0 10 4 2 14 -14 16 -16 16 -16 0z"/>
<path d="M265 140 c-4 -6 -11 -7 -17 -4 -7 4 -8 2 -4 -5 6 -9 11 -9 22 0 14
11 18 19 10 19 -3 0 -8 -5 -11 -10z"/>
<path d="M290 146 c0 -2 8 -10 18 -17 15 -13 16 -12 3 4 -13 16 -21 21 -21 13z"/>
<path d="M645 121 c-3 -6 -11 -8 -17 -5 -7 4 -8 2 -4 -5 6 -9 11 -9 22 0 17
14 19 -2 2 -21 -7 -8 -4 -7 7 2 14 13 16 21 8 29 -8 8 -13 8 -18 0z"/>
<path d="M830 126 c0 -2 8 -10 18 -17 15 -13 16 -12 3 4 -13 16 -21 21 -21 13z"/>
<path d="M466 95 c8 -12 11 -25 7 -28 -3 -4 -4 -7 -1 -7 3 0 12 8 19 17 10 11
10 14 2 9 -11 -6 -17 3 -15 25 1 3 -5 6 -13 6 -11 0 -11 -4 1 -22z"/>
<path d="M356 78 c3 -5 10 -6 15 -3 13 9 11 12 -6 12 -8 0 -12 -4 -9 -9z"/>
<path d="M563 73 c1 -17 4 -19 14 -11 15 12 18 22 4 14 -5 -4 -11 0 -14 6 -3
7 -4 3 -4 -9z"/>
<path d="M620 81 c0 -6 4 -13 10 -16 6 -3 7 1 4 9 -7 18 -14 21 -14 7z"/>
<path d="M709 71 c6 -10 8 -20 6 -23 -3 -3 1 -5 9 -5 12 0 12 4 -1 24 -18 28
-28 31 -14 4z"/>
<path d="M734 72 c4 -3 14 -7 22 -8 9 -1 13 0 10 4 -4 3 -14 7 -22 8 -9 1 -13
0 -10 -4z"/>
<path d="M396 62 c-3 -5 1 -9 9 -9 8 0 12 4 9 9 -3 4 -7 8 -9 8 -2 0 -6 -4 -9
-8z"/>
<path d="M453 52 c2 -12 6 -24 10 -28 3 -4 4 4 2 16 -6 30 -16 40 -12 12z"/>
<path d="M656 58 c3 -5 10 -6 15 -3 13 9 11 12 -6 12 -8 0 -12 -4 -9 -9z"/>
<path d="M780 49 c0 -5 -4 -8 -9 -4 -5 3 -12 1 -15 -4 -4 -5 2 -8 11 -7 15 3
33 26 19 26 -3 0 -6 -5 -6 -11z"/>
</g>
</svg>
